# xmcd
# Track frame offsets:
# 150
# 15682
# 28440
# 42515
# 57160
# 69797
# 86685
# 98952
# 111690
#
# Disc length: 1672 seconds
# Revision: 0
# Processed by: cddbd v1.4PL0 Copyright (c) Steve Scherf et al.
# Submitted via: VisiTrax 2.9.1.155 - For more info visit www.synapsa.com
#
DISCID=7c068609
DTITLE=Various Artist - Navidad Vaquera Wrangler - Tomo S:II
DYEAR=1900
DGENRE=
TTITLE0=Los Mismos - Cuando Llegue Navidad (Guadarrama)
TTITLE1=Roberto Pulido - Bienvenida Navidad (Garcia)
TTITLE2=Fito Olivares - Cumbia Navidena (Campos)
TTITLE3=Daniela Romo - Blanca Navidad (White Christmas) (Berlin)
TTITLE4=Tropa F - LLego Navidad (Farias)
TTITLE5=Mazz - Deseo De Navidad (Merry Christmas Darling)
TTITLE6=Cardenales De Nuevo Leon - Regalo De Reyes (Alma)
TTITLE7=Los Vallenatos - Navidad, Navidad (Chapa)
TTITLE8=Los Tucanes De Tijuana - Ritmo Navideno (Lara)
EXTD=
EXTT0=
EXTT1=
EXTT2=
EXTT3=
EXTT4=
EXTT5=
EXTT6=
EXTT7=
EXTT8=
PLAYORDER=
